<svg width="57" height="115" viewBox="0 0 57 115" fill="none" xmlns="http://www.w3.org/2000/svg">
<g filter="url(#filter0_d)">
<path d="M25.6278 60.7934C27.8994 50.8399 29.5251 40.1623 30.6338 30.7292C31.0884 15.5693 32.1703 1.30316 32.5456 3.18484C32.824 4.58064 32.3445 16.1732 30.6338 30.7292C30.2685 42.9104 30.3081 55.6685 31.4447 61.0904C32.8855 61.1342 34.3164 61.1555 35.7041 61.1532C42.0812 51.4094 51.7205 18.4137 50.5521 27.4084C49.4275 36.0656 39.7523 52.1107 36.4796 61.1493C42.4902 61.0996 47.5511 60.5877 48.8593 59.4979C49.0478 58.4481 49.1722 58.1065 49.1878 58.902C49.192 59.1172 49.0781 59.3156 48.8593 59.4979C47.5511 60.5877 42.4902 61.0996 36.4796 61.1493C35.8044 63.0143 35.4017 64.581 35.4029 65.7229C35.4084 70.8919 36.2363 90.401 39.8039 98.1917C44.4601 99.5553 47.027 100.577 43.6722 101.371C42.118 101.739 40.8444 100.464 39.8039 98.1917C34.9069 96.7576 27.699 94.9453 22.6383 92.6214C22.1235 92.385 21.5963 92.1282 21.0606 91.8525C21.1439 96.6488 21.2188 100.508 21.309 102.983C21.6015 104.942 21.7084 106.081 21.56 106.035C21.4594 106.003 21.3795 104.915 21.309 102.983C20.8961 100.217 20.1133 95.8166 19.1568 90.8111C17.9566 90.1161 16.7398 89.3383 15.5501 88.4922C7.47467 82.7496 0.641605 73.8626 8.6592 66.3788C10.048 65.0825 11.4805 63.5228 12.9076 61.7706C12.5334 60.341 12.1999 59.1819 11.9228 58.3761C11.3272 58.0426 11.0391 57.6845 11.132 57.3049C11.2541 56.8063 11.5324 57.2405 11.9228 58.3761C12.557 58.7311 13.5399 59.0582 14.7826 59.3538C16.6486 56.8339 18.4674 54.0323 20.1258 51.1122C19.5334 34.2634 18.5596 17.7498 16.8336 8.53558C12.8338 4.04884 9.93351 0.535034 13.7005 1.06624C14.9558 1.24326 15.9855 4.00837 16.8336 8.53558C21.2189 13.4548 26.9259 19.5436 26.6165 22.753C29.9089 28.7912 26.0363 40.7049 20.1258 51.1122C20.2336 54.177 20.3287 57.2528 20.4135 60.2979C22.045 60.4954 23.8071 60.6616 25.6278 60.7934Z" fill="#FBEDBE" fill-opacity="0.322917"/>
<path d="M50.1204 51.0419C48.0147 57.7289 55.1217 52.6477 50.1204 51.0419Z" fill="#FBEDBE" fill-opacity="0.322917"/>
<path d="M7.00324 95.8662C28.2163 90.0712 33.3211 7.0727 32.5456 3.18484C31.7701 -0.703025 27.9784 64.3452 32.9351 63.7792C38.6952 63.1294 51.9088 16.9648 50.5521 27.4084C49.1954 37.8519 35.3957 59.0464 35.4029 65.7229C35.41 72.3995 36.7892 103.001 43.6722 101.371C50.5553 99.7415 32.5109 97.1549 22.6383 92.6214C12.7658 88.0879 -1.71186 76.0593 8.6592 66.3788C19.0303 56.6984 31.8397 32.3321 26.6165 22.753C27.2082 16.6163 5.80338 -0.0473779 13.7005 1.06624C21.5976 2.17986 20.5655 105.723 21.56 106.035C22.5545 106.347 12.0849 53.4134 11.132 57.3049C10.1792 61.1964 49.2644 62.8204 49.1878 58.902C49.1111 54.9837 46.394 78.6503 46.394 78.6503M49.1907 50.8126C56.1844 52.1067 47.2575 58.5673 50.4252 50.1645" stroke="#022D9A"/>
<path d="M7.00324 95.8662C28.2163 90.0712 33.3211 7.0727 32.5456 3.18484C31.7701 -0.703025 27.9784 64.3452 32.9351 63.7792C38.6952 63.1294 51.9088 16.9648 50.5521 27.4084C49.1954 37.8519 35.3957 59.0464 35.4029 65.7229C35.41 72.3995 36.7892 103.001 43.6722 101.371C50.5553 99.7415 32.5109 97.1549 22.6383 92.6214C12.7658 88.0879 -1.71186 76.0593 8.6592 66.3788C19.0303 56.6984 31.8397 32.3321 26.6165 22.753C27.2082 16.6163 5.80338 -0.0473779 13.7005 1.06624C21.5976 2.17986 20.5655 105.723 21.56 106.035C22.5545 106.347 12.0849 53.4134 11.132 57.3049C10.1792 61.1964 49.2644 62.8204 49.1878 58.902C49.1111 54.9837 46.394 78.6503 46.394 78.6503M49.1907 50.8126C56.1844 52.1067 47.2575 58.5673 50.4252 50.1645" stroke="url(#paint0_linear)"/>
</g>
<defs>
<filter id="filter0_d" x="0.57785" y="0.513062" width="55.8654" height="114.023" filterUnits="userSpaceOnUse" color-interpolation-filters="sRGB">
<feFlood flood-opacity="0" result="BackgroundImageFix"/>
<feColorMatrix in="SourceAlpha" type="matrix" values="0 0 0 0 0 0 0 0 0 0 0 0 0 0 0 0 0 0 127 0"/>
<feOffset dy="4"/>
<feGaussianBlur stdDeviation="2"/>
<feColorMatrix type="matrix" values="0 0 0 0 0 0 0 0 0 0 0 0 0 0 0 0 0 0 0.25 0"/>
<feBlend mode="normal" in2="BackgroundImageFix" result="effect1_dropShadow"/>
<feBlend mode="normal" in="SourceGraphic" in2="effect1_dropShadow" result="shape"/>
</filter>
<linearGradient id="paint0_linear" x1="22.2598" y1="2.21837" x2="28.2687" y2="110.674" gradientUnits="userSpaceOnUse">
<stop offset="0.0686604" stop-color="#F1C836"/>
<stop offset="0.458066" stop-color="#FBEDBE" stop-opacity="0.322917"/>
<stop offset="0.513269" stop-color="white" stop-opacity="0"/>
</linearGradient>
</defs>
</svg>
